<svg width="400" height="400" viewBox="0 0 400 400" fill="none" xmlns="http://www.w3.org/2000/svg">
    <link xmlns="" type="text/css" id="dark-mode" rel="stylesheet" href="" />
    <style xmlns="" type="text/css" id="dark-mode-custom-style" />
    <g clip-path="url(#clip0_701_3)">
        <rect width="400" height="400" rx="50" fill="black" />
        <rect width="400" height="400" fill="url(#paint0_radial_701_3)" />
        <rect x="197" width="6" height="400" fill="white" />
        <rect x="0.5" y="203" width="6" height="400" transform="rotate(-90 0.5 203)" fill="white" />
        <rect width="197" height="197" fill="#1102F4" fill-opacity="0.75" />
        <path
            d="M145.182 99.4545C145.182 109.818 143.167 118.561 139.136 125.682C135.106 132.773 129.667 138.152 122.818 141.818C115.97 145.455 108.333 147.273 99.9091 147.273C91.4242 147.273 83.7576 145.439 76.9091 141.773C70.0909 138.076 64.6667 132.682 60.6364 125.591C56.6364 118.47 54.6364 109.758 54.6364 99.4545C54.6364 89.0909 56.6364 80.3636 60.6364 73.2727C64.6667 66.1515 70.0909 60.7727 76.9091 57.1364C83.7576 53.4697 91.4242 51.6364 99.9091 51.6364C108.333 51.6364 115.97 53.4697 122.818 57.1364C129.667 60.7727 135.106 66.1515 139.136 73.2727C143.167 80.3636 145.182 89.0909 145.182 99.4545ZM119.182 99.4545C119.182 93.8788 118.439 89.1818 116.955 85.3636C115.5 81.5151 113.333 78.6061 110.455 76.6364C107.606 74.6364 104.091 73.6364 99.9091 73.6364C95.7273 73.6364 92.197 74.6364 89.3182 76.6364C86.4697 78.6061 84.303 81.5151 82.8182 85.3636C81.3636 89.1818 80.6364 93.8788 80.6364 99.4545C80.6364 105.03 81.3636 109.742 82.8182 113.591C84.303 117.409 86.4697 120.318 89.3182 122.318C92.197 124.288 95.7273 125.273 99.9091 125.273C104.091 125.273 107.606 124.288 110.455 122.318C113.333 120.318 115.5 117.409 116.955 113.591C118.439 109.742 119.182 105.03 119.182 99.4545Z"
            fill="white" />
        <path
            d="M46 255.909H77.4545L99.0909 308.636H100.182L121.818 255.909H153.273V349H128.545V295.182H127.818L107.091 348.273H92.1818L71.4545 294.818H70.7273V349H46V255.909Z"
            fill="white" />
        <path
            d="M316.182 285C315.939 281.97 314.803 279.606 312.773 277.909C310.773 276.212 307.727 275.364 303.636 275.364C301.03 275.364 298.894 275.682 297.227 276.318C295.591 276.924 294.379 277.758 293.591 278.818C292.803 279.879 292.394 281.091 292.364 282.455C292.303 283.576 292.5 284.591 292.955 285.5C293.439 286.379 294.197 287.182 295.227 287.909C296.258 288.606 297.576 289.242 299.182 289.818C300.788 290.394 302.697 290.909 304.909 291.364L312.545 293C317.697 294.091 322.106 295.53 325.773 297.318C329.439 299.106 332.439 301.212 334.773 303.636C337.106 306.03 338.818 308.727 339.909 311.727C341.03 314.727 341.606 318 341.636 321.545C341.606 327.667 340.076 332.848 337.045 337.091C334.015 341.333 329.682 344.561 324.045 346.773C318.439 348.985 311.697 350.091 303.818 350.091C295.727 350.091 288.667 348.894 282.636 346.5C276.636 344.106 271.97 340.424 268.636 335.455C265.333 330.455 263.667 324.061 263.636 316.273H287.636C287.788 319.121 288.5 321.515 289.773 323.455C291.045 325.394 292.833 326.864 295.136 327.864C297.47 328.864 300.242 329.364 303.455 329.364C306.152 329.364 308.409 329.03 310.227 328.364C312.045 327.697 313.424 326.773 314.364 325.591C315.303 324.409 315.788 323.061 315.818 321.545C315.788 320.121 315.318 318.879 314.409 317.818C313.53 316.727 312.076 315.758 310.045 314.909C308.015 314.03 305.273 313.212 301.818 312.455L292.545 310.455C284.303 308.667 277.803 305.682 273.045 301.5C268.318 297.288 265.97 291.545 266 284.273C265.97 278.364 267.545 273.197 270.727 268.773C273.939 264.318 278.379 260.848 284.045 258.364C289.742 255.879 296.273 254.636 303.636 254.636C311.152 254.636 317.652 255.894 323.136 258.409C328.621 260.924 332.848 264.47 335.818 269.045C338.818 273.591 340.333 278.909 340.364 285H316.182Z"
            fill="white" />
        <path
            d="M267 146V52.9091H307.182C314.091 52.9091 320.136 54.2727 325.318 57C330.5 59.7273 334.53 63.5606 337.409 68.5C340.288 73.4394 341.727 79.2121 341.727 85.8182C341.727 92.4848 340.242 98.2576 337.273 103.136C334.333 108.015 330.197 111.773 324.864 114.409C319.561 117.045 313.364 118.364 306.273 118.364H282.273V98.7273H301.182C304.152 98.7273 306.682 98.2121 308.773 97.1818C310.894 96.1212 312.515 94.6212 313.636 92.6818C314.788 90.7424 315.364 88.4545 315.364 85.8182C315.364 83.1515 314.788 80.8788 313.636 79C312.515 77.0909 310.894 75.6364 308.773 74.6364C306.682 73.6061 304.152 73.0909 301.182 73.0909H292.273V146H267Z"
            fill="white" />
    </g>
    <defs>
        <radialGradient id="paint0_radial_701_3" cx="0" cy="0" r="1" gradientUnits="userSpaceOnUse"
            gradientTransform="translate(200 200) rotate(45) scale(282.843)">
            <stop stop-color="#8709E8" stop-opacity="0.5" />
            <stop offset="0.568605" stop-color="#1102F4" stop-opacity="0.15" />
        </radialGradient>
        <clipPath id="clip0_701_3">
            <rect width="400" height="400" rx="50" fill="white" />
        </clipPath>
    </defs>
</svg>